# Blender 3.3.1
# www.blender.org
o Torus.001
v 600.000000 300.000000 0.000000
v 593.301270 300.000000 25.000000
v 575.000000 300.000000 43.301270
v 550.000000 300.000000 50.000000
v 525.000000 300.000000 43.301270
v 506.698730 300.000000 25.000000
v 500.000000 300.000000 0.000000
v 585.316956 392.705078 0.000000
v 578.946045 390.635040 25.000000
v 561.540527 384.979645 43.301270
v 537.764160 377.254211 50.000000
v 513.987732 369.528809 43.301270
v 496.582184 363.873413 25.000000
v 490.211304 361.803375 0.000000
v 542.705078 476.335571 0.000000
v 537.285706 472.398163 25.000000
v 522.479675 461.640930 43.301270
v 502.254272 446.946289 50.000000
v 482.028809 432.251678 43.301270
v 467.222778 421.494446 25.000000
v 461.803406 417.557068 0.000000
v 476.335541 542.705139 0.000000
v 472.398132 537.285767 25.000000
v 461.640930 522.479675 43.301270
v 446.946289 502.254272 50.000000
v 432.251648 482.028839 43.301270
v 421.494446 467.222778 25.000000
v 417.557007 461.803406 0.000000
v 392.705139 585.316956 0.000000
v 390.635132 578.946045 25.000000
v 384.979736 561.540527 43.301270
v 377.254303 537.764099 50.000000
v 369.528870 513.987671 43.301270
v 363.873474 496.582153 25.000000
v 361.803436 490.211304 0.000000
v 300.000031 600.000000 0.000000
v 300.000031 593.301270 25.000000
v 300.000031 575.000000 43.301270
v 300.000031 550.000000 50.000000
v 300.000031 525.000000 43.301270
v 300.000031 506.698730 25.000000
v 300.000000 500.000000 0.000000
v 207.294891 585.316956 0.000000
v 209.364914 578.946045 25.000000
v 215.020325 561.540527 43.301270
v 222.745743 537.764099 50.000000
v 230.471161 513.987671 43.301270
v 236.126572 496.582153 25.000000
v 238.196594 490.211304 0.000000
v 123.664368 542.705078 0.000000
v 127.601791 537.285645 25.000000
v 138.359009 522.479614 43.301270
v 153.053650 502.254211 50.000000
v 167.748276 482.028809 43.301270
v 178.505493 467.222778 25.000000
v 182.442917 461.803375 0.000000
v 57.294846 476.335510 0.000000
v 62.714233 472.398071 25.000000
v 77.520279 461.640869 43.301270
v 97.745697 446.946259 50.000000
v 117.971130 432.251648 43.301270
v 132.777176 421.494415 25.000000
v 138.196564 417.557007 0.000000
v 14.683044 392.705109 0.000000
v 21.053925 390.635071 25.000000
v 38.459473 384.979675 43.301270
v 62.235886 377.254272 50.000000
v 86.012299 369.528839 43.301270
v 103.417831 363.873413 25.000000
v 109.788696 361.803406 0.000000
v 0.000000 300.000031 0.000000
v 6.698730 300.000031 25.000000
v 25.000000 300.000031 43.301270
v 50.000000 300.000031 50.000000
v 75.000000 300.000031 43.301270
v 93.301270 300.000031 25.000000
v 100.000000 300.000031 0.000000
v 14.683014 207.295013 0.000000
v 21.053864 209.365051 25.000000
v 38.459412 215.020447 43.301270
v 62.235840 222.745850 50.000000
v 86.012253 230.471268 43.301270
v 103.417801 236.126663 25.000000
v 109.788666 238.196686 0.000000
v 57.294846 123.664505 0.000000
v 62.714233 127.601913 25.000000
v 77.520279 138.359131 43.301270
v 97.745697 153.053741 50.000000
v 117.971130 167.748367 43.301270
v 132.777176 178.505585 25.000000
v 138.196564 182.442993 0.000000
v 123.664368 57.294937 0.000000
v 127.601791 62.714325 25.000000
v 138.359009 77.520355 43.301270
v 153.053650 97.745773 50.000000
v 167.748276 117.971207 43.301270
v 178.505493 132.777237 25.000000
v 182.442917 138.196625 0.000000
v 207.294891 14.683044 0.000000
v 209.364914 21.053925 25.000000
v 215.020325 38.459473 43.301270
v 222.745743 62.235886 50.000000
v 230.471161 86.012299 43.301270
v 236.126572 103.417831 25.000000
v 238.196594 109.788696 0.000000
v 300.000031 0.000000 0.000000
v 300.000031 6.698730 25.000000
v 300.000031 25.000000 43.301270
v 300.000031 50.000000 50.000000
v 300.000031 75.000000 43.301270
v 300.000031 93.301270 25.000000
v 300.000000 100.000000 0.000000
v 392.705139 14.683044 0.000000
v 390.635132 21.053925 25.000000
v 384.979736 38.459473 43.301270
v 377.254303 62.235886 50.000000
v 369.528870 86.012299 43.301270
v 363.873474 103.417831 25.000000
v 361.803436 109.788696 0.000000
v 476.335449 57.294785 0.000000
v 472.398010 62.714188 25.000000
v 461.640808 77.520233 43.301270
v 446.946198 97.745667 50.000000
v 432.251587 117.971100 43.301270
v 421.494354 132.777145 25.000000
v 417.556946 138.196533 0.000000
v 542.705017 123.664307 0.000000
v 537.285645 127.601715 25.000000
v 522.479614 138.358948 43.301270
v 502.254181 153.053589 50.000000
v 482.028748 167.748230 43.301270
v 467.222717 178.505447 25.000000
v 461.803345 182.442871 0.000000
v 585.316895 207.294800 0.000000
v 578.946045 209.364822 25.000000
v 561.540527 215.020233 43.301270
v 537.764099 222.745667 50.000000
v 513.987671 230.471100 43.301270
v 496.582153 236.126511 25.000000
v 490.211304 238.196533 0.000000
vn 0.9186 0.2985 0.2588
vn 0.8722 -0.0000 0.4891
vn 0.9659 -0.0000 0.2588
vn 0.8295 0.2695 0.4891
vn 0.5189 -0.0000 0.8548
vn 0.0246 0.0080 0.9997
vn 0.0259 -0.0000 0.9997
vn -0.4566 -0.1484 0.8772
vn -0.4801 -0.0000 0.8772
vn -0.8593 -0.0000 0.5115
vn -0.8172 -0.2655 0.5115
vn -0.9659 -0.0000 0.2588
vn 0.7815 0.5678 0.2588
vn 0.4198 0.3050 0.8548
vn 0.4935 0.1603 0.8548
vn 0.0209 0.0152 0.9997
vn -0.6952 -0.5051 0.5115
vn -0.9186 -0.2985 0.2588
vn 0.5678 0.7815 0.2588
vn 0.7056 0.5127 0.4891
vn 0.5127 0.7056 0.4891
vn 0.3050 0.4198 0.8548
vn 0.0152 0.0209 0.9997
vn -0.3884 -0.2822 0.8772
vn -0.5051 -0.6952 0.5115
vn -0.7815 -0.5678 0.2588
vn 0.2985 0.9186 0.2588
vn 0.2695 0.8295 0.4891
vn 0.1603 0.4935 0.8548
vn 0.0080 0.0246 0.9997
vn -0.2822 -0.3884 0.8772
vn -0.1484 -0.4566 0.8772
vn -0.2655 -0.8172 0.5115
vn -0.5678 -0.7815 0.2588
vn -0.0000 0.9659 0.2588
vn -0.0000 0.8722 0.4891
vn -0.0000 0.5189 0.8548
vn -0.0000 -0.4801 0.8772
vn -0.0000 -0.8593 0.5115
vn -0.2985 -0.9187 0.2588
vn -0.2695 0.8295 0.4891
vn -0.1603 0.4935 0.8548
vn -0.0000 0.0259 0.9997
vn -0.0080 0.0246 0.9997
vn 0.1484 -0.4566 0.8772
vn 0.2655 -0.8172 0.5115
vn -0.0000 -0.9659 0.2588
vn -0.5678 0.7815 0.2588
vn -0.2985 0.9186 0.2588
vn -0.5127 0.7056 0.4891
vn -0.0152 0.0209 0.9997
vn 0.2822 -0.3884 0.8772
vn 0.5051 -0.6952 0.5115
vn 0.2985 -0.9187 0.2588
vn -0.7815 0.5678 0.2588
vn -0.7056 0.5127 0.4891
vn -0.3050 0.4198 0.8548
vn -0.4198 0.3050 0.8548
vn -0.0209 0.0152 0.9997
vn 0.6952 -0.5051 0.5115
vn 0.5678 -0.7815 0.2588
vn -0.8295 0.2695 0.4891
vn -0.4935 0.1603 0.8548
vn -0.0246 0.0080 0.9997
vn 0.3884 -0.2822 0.8772
vn 0.4566 -0.1484 0.8772
vn 0.8172 -0.2655 0.5115
vn 0.7815 -0.5678 0.2588
vn -0.9187 0.2985 0.2588
vn -0.8722 -0.0000 0.4891
vn -0.0259 -0.0000 0.9997
vn 0.4801 -0.0000 0.8772
vn 0.8593 -0.0000 0.5115
vn 0.9187 -0.2985 0.2588
vn -0.8295 -0.2695 0.4891
vn -0.5189 -0.0000 0.8548
vn -0.4935 -0.1603 0.8548
vn -0.0246 -0.0080 0.9997
vn 0.4566 0.1484 0.8772
vn 0.8172 0.2655 0.5115
vn -0.9187 -0.2985 0.2588
vn -0.7056 -0.5127 0.4891
vn -0.4198 -0.3050 0.8548
vn -0.0209 -0.0152 0.9997
vn 0.3884 0.2822 0.8772
vn 0.9187 0.2985 0.2588
vn -0.5127 -0.7056 0.4891
vn -0.3050 -0.4198 0.8548
vn 0.2822 0.3884 0.8772
vn 0.6952 0.5051 0.5115
vn 0.5051 0.6952 0.5115
vn -0.2985 -0.9186 0.2588
vn -0.2695 -0.8295 0.4891
vn -0.1603 -0.4935 0.8548
vn -0.0152 -0.0209 0.9997
vn -0.0080 -0.0246 0.9997
vn 0.1484 0.4566 0.8772
vn 0.2655 0.8172 0.5115
vn -0.0000 -0.8722 0.4891
vn -0.0000 -0.5189 0.8548
vn -0.0000 0.4801 0.8772
vn -0.0000 0.8593 0.5115
vn 0.2695 -0.8295 0.4891
vn 0.0080 -0.0246 0.9997
vn -0.0000 -0.0259 0.9997
vn -0.2655 0.8172 0.5115
vn 0.3050 -0.4198 0.8548
vn 0.1603 -0.4935 0.8548
vn 0.0152 -0.0209 0.9997
vn -0.1484 0.4566 0.8772
vn -0.5051 0.6952 0.5115
vn -0.2985 0.9187 0.2588
vn 0.5127 -0.7056 0.4891
vn 0.7056 -0.5127 0.4891
vn 0.4198 -0.3050 0.8548
vn 0.0209 -0.0152 0.9997
vn -0.2822 0.3884 0.8772
vn -0.6952 0.5051 0.5115
vn 0.8295 -0.2695 0.4891
vn 0.4935 -0.1603 0.8548
vn 0.0246 -0.0080 0.9997
vn -0.3884 0.2822 0.8772
vn -0.4566 0.1484 0.8772
vn -0.8172 0.2655 0.5115
vn 0.9186 -0.2985 0.2588
vt 0.550000 0.500000
vt 0.550000 0.583333
vt 0.550000 0.666667
vt 0.550000 0.750000
vt 0.550000 0.833333
vt 0.550000 0.916667
vt 0.550000 1.000000
vt 0.600000 0.500000
vt 0.600000 0.583333
vt 0.600000 0.666667
vt 0.600000 0.750000
vt 0.600000 0.833333
vt 0.600000 0.916667
vt 0.600000 1.000000
vt 0.650000 0.500000
vt 0.650000 0.583333
vt 0.650000 0.666667
vt 0.650000 0.750000
vt 0.650000 0.833333
vt 0.650000 0.916667
vt 0.650000 1.000000
vt 0.700000 0.500000
vt 0.700000 0.583333
vt 0.700000 0.666667
vt 0.700000 0.750000
vt 0.700000 0.833333
vt 0.700000 0.916667
vt 0.700000 1.000000
vt 0.750000 0.500000
vt 0.750000 0.583333
vt 0.750000 0.666667
vt 0.750000 0.750000
vt 0.750000 0.833333
vt 0.750000 0.916667
vt 0.750000 1.000000
vt 0.800000 0.500000
vt 0.800000 0.583333
vt 0.800000 0.666667
vt 0.800000 0.750000
vt 0.800000 0.833333
vt 0.800000 0.916667
vt 0.800000 1.000000
vt 0.850000 0.500000
vt 0.850000 0.583333
vt 0.850000 0.666667
vt 0.850000 0.750000
vt 0.850000 0.833333
vt 0.850000 0.916667
vt 0.850000 1.000000
vt 0.900000 0.500000
vt 0.900000 0.583333
vt 0.900000 0.666667
vt 0.900000 0.750000
vt 0.900000 0.833333
vt 0.900000 0.916667
vt 0.900000 1.000000
vt 0.950000 0.500000
vt 0.950000 0.583333
vt 0.950000 0.666667
vt 0.950000 0.750000
vt 0.950000 0.833333
vt 0.950000 0.916667
vt 0.950000 1.000000
vt 0.000000 0.500000
vt 1.000000 0.500000
vt 1.000000 0.583333
vt 0.000000 0.583333
vt 1.000000 0.666667
vt 0.000000 0.666667
vt 1.000000 0.750000
vt 0.000000 0.750000
vt 0.000000 0.833333
vt 1.000000 0.833333
vt 1.000000 0.916667
vt 0.000000 0.916667
vt 1.000000 1.000000
vt 0.000000 1.000000
vt 0.050000 0.500000
vt 0.050000 0.583333
vt 0.050000 0.666667
vt 0.050000 0.750000
vt 0.050000 0.833333
vt 0.050000 0.916667
vt 0.050000 1.000000
vt 0.100000 0.500000
vt 0.100000 0.583333
vt 0.100000 0.666667
vt 0.100000 0.750000
vt 0.100000 0.833333
vt 0.100000 0.916667
vt 0.100000 1.000000
vt 0.150000 0.500000
vt 0.150000 0.583333
vt 0.150000 0.666667
vt 0.150000 0.750000
vt 0.150000 0.833333
vt 0.150000 0.916667
vt 0.150000 1.000000
vt 0.200000 0.500000
vt 0.200000 0.583333
vt 0.200000 0.666667
vt 0.200000 0.750000
vt 0.200000 0.833333
vt 0.200000 0.916667
vt 0.200000 1.000000
vt 0.250000 0.500000
vt 0.250000 0.583333
vt 0.250000 0.666667
vt 0.250000 0.750000
vt 0.250000 0.833333
vt 0.250000 0.916667
vt 0.250000 1.000000
vt 0.300000 0.500000
vt 0.300000 0.583333
vt 0.300000 0.666667
vt 0.300000 0.750000
vt 0.300000 0.833333
vt 0.300000 0.916667
vt 0.300000 1.000000
vt 0.350000 0.500000
vt 0.350000 0.583333
vt 0.350000 0.666667
vt 0.350000 0.750000
vt 0.350000 0.833333
vt 0.350000 0.916667
vt 0.350000 1.000000
vt 0.400000 0.500000
vt 0.400000 0.583333
vt 0.400000 0.666667
vt 0.400000 0.750000
vt 0.400000 0.833333
vt 0.400000 0.916667
vt 0.400000 1.000000
vt 0.450000 0.500000
vt 0.450000 0.583333
vt 0.450000 0.666667
vt 0.450000 0.750000
vt 0.450000 0.833333
vt 0.450000 0.916667
vt 0.450000 1.000000
vt 0.500000 0.500000
vt 0.500000 0.583333
vt 0.500000 0.666667
vt 0.500000 0.750000
vt 0.500000 0.833333
vt 0.500000 0.916667
vt 0.500000 1.000000
s 1
f 8/8/1 2/2/2 1/1/3
f 9/9/4 3/3/5 2/2/2
f 3/3/5 11/11/6 4/4/7
f 4/4/7 12/12/8 5/5/9
f 12/12/8 6/6/10 5/5/9
f 13/13/11 7/7/12 6/6/10
f 15/15/13 9/9/4 8/8/1
f 9/9/4 17/17/14 10/10/15
f 17/17/14 11/11/6 10/10/15
f 18/18/16 12/12/8 11/11/6
f 12/12/8 20/20/17 13/13/11
f 20/20/17 14/14/18 13/13/11
f 22/22/19 16/16/20 15/15/13
f 23/23/21 17/17/14 16/16/20
f 24/24/22 18/18/16 17/17/14
f 25/25/23 19/19/24 18/18/16
f 19/19/24 27/27/25 20/20/17
f 27/27/25 21/21/26 20/20/17
f 29/29/27 23/23/21 22/22/19
f 30/30/28 24/24/22 23/23/21
f 31/31/29 25/25/23 24/24/22
f 32/32/30 26/26/31 25/25/23
f 33/33/32 27/27/25 26/26/31
f 34/34/33 28/28/34 27/27/25
f 36/36/35 30/30/28 29/29/27
f 37/37/36 31/31/29 30/30/28
f 38/38/37 32/32/30 31/31/29
f 32/32/30 40/40/38 33/33/32
f 40/40/38 34/34/33 33/33/32
f 41/41/39 35/35/40 34/34/33
f 36/36/35 44/44/41 37/37/36
f 44/44/41 38/38/37 37/37/36
f 45/45/42 39/39/43 38/38/37
f 46/46/44 40/40/38 39/39/43
f 47/47/45 41/41/39 40/40/38
f 48/48/46 42/42/47 41/41/39
f 50/50/48 44/44/41 43/43/49
f 51/51/50 45/45/42 44/44/41
f 45/45/42 53/53/51 46/46/44
f 53/53/51 47/47/45 46/46/44
f 54/54/52 48/48/46 47/47/45
f 55/55/53 49/49/54 48/48/46
f 57/57/55 51/51/50 50/50/48
f 58/58/56 52/52/57 51/51/50
f 59/59/58 53/53/51 52/52/57
f 60/60/59 54/54/52 53/53/51
f 54/54/52 62/62/60 55/55/53
f 62/62/60 56/56/61 55/55/53
f 57/57/55 65/66/62 58/58/56
f 65/66/62 59/59/58 58/58/56
f 66/68/63 60/60/59 59/59/58
f 67/70/64 61/61/65 60/60/59
f 68/73/66 62/62/60 61/61/65
f 69/74/67 63/63/68 62/62/60
f 71/78/12 65/67/62 64/64/69
f 72/79/70 66/69/63 65/67/62
f 66/69/63 74/81/71 67/71/64
f 67/71/64 75/82/72 68/72/66
f 75/82/72 69/75/67 68/72/66
f 76/83/73 70/77/74 69/75/67
f 71/78/12 79/86/75 72/79/70
f 79/86/75 73/80/76 72/79/70
f 80/87/77 74/81/71 73/80/76
f 81/88/78 75/82/72 74/81/71
f 82/89/79 76/83/73 75/82/72
f 83/90/80 77/84/3 76/83/73
f 78/85/81 86/93/82 79/86/75
f 86/93/82 80/87/77 79/86/75
f 87/94/83 81/88/78 80/87/77
f 88/95/84 82/89/79 81/88/78
f 89/96/85 83/90/80 82/89/79
f 83/90/80 91/98/13 84/91/86
f 85/92/26 93/100/87 86/93/82
f 93/100/87 87/94/83 86/93/82
f 94/101/88 88/95/84 87/94/83
f 88/95/84 96/103/89 89/96/85
f 96/103/89 90/97/90 89/96/85
f 97/104/91 91/98/13 90/97/90
f 99/106/92 93/100/87 92/99/34
f 100/107/93 94/101/88 93/100/87
f 101/108/94 95/102/95 94/101/88
f 102/109/96 96/103/89 95/102/95
f 103/110/97 97/104/91 96/103/89
f 104/111/98 98/105/19 97/104/91
f 106/113/47 100/107/93 99/106/92
f 107/114/99 101/108/94 100/107/93
f 108/115/100 102/109/96 101/108/94
f 102/109/96 110/117/101 103/110/97
f 103/110/97 111/118/102 104/111/98
f 111/118/102 105/112/27 104/111/98
f 106/113/47 114/121/103 107/114/99
f 114/121/103 108/115/100 107/114/99
f 108/115/100 116/123/104 109/116/105
f 116/123/104 110/117/101 109/116/105
f 110/117/101 118/125/106 111/118/102
f 118/125/106 112/119/35 111/118/102
f 120/127/61 114/121/103 113/120/54
f 114/121/103 122/129/107 115/122/108
f 122/129/107 116/123/104 115/122/108
f 123/130/109 117/124/110 116/123/104
f 117/124/110 125/132/111 118/125/106
f 125/132/111 119/126/112 118/125/106
f 127/134/68 121/128/113 120/127/61
f 128/135/114 122/129/107 121/128/113
f 129/136/115 123/130/109 122/129/107
f 130/137/116 124/131/117 123/130/109
f 124/131/117 132/139/118 125/132/111
f 125/132/111 133/140/55 126/133/48
f 127/134/68 135/142/119 128/135/114
f 128/135/114 136/143/120 129/136/115
f 136/143/120 130/137/116 129/136/115
f 137/144/121 131/138/122 130/137/116
f 138/145/123 132/139/118 131/138/122
f 139/146/124 133/140/55 132/139/118
f 1/1/3 135/142/119 134/141/125
f 2/2/2 136/143/120 135/142/119
f 3/3/5 137/144/121 136/143/120
f 4/4/7 138/145/123 137/144/121
f 5/5/9 139/146/124 138/145/123
f 6/6/10 140/147/69 139/146/124
f 8/8/1 9/9/4 2/2/2
f 9/9/4 10/10/15 3/3/5
f 3/3/5 10/10/15 11/11/6
f 4/4/7 11/11/6 12/12/8
f 12/12/8 13/13/11 6/6/10
f 13/13/11 14/14/18 7/7/12
f 15/15/13 16/16/20 9/9/4
f 9/9/4 16/16/20 17/17/14
f 17/17/14 18/18/16 11/11/6
f 18/18/16 19/19/24 12/12/8
f 12/12/8 19/19/24 20/20/17
f 20/20/17 21/21/26 14/14/18
f 22/22/19 23/23/21 16/16/20
f 23/23/21 24/24/22 17/17/14
f 24/24/22 25/25/23 18/18/16
f 25/25/23 26/26/31 19/19/24
f 19/19/24 26/26/31 27/27/25
f 27/27/25 28/28/34 21/21/26
f 29/29/27 30/30/28 23/23/21
f 30/30/28 31/31/29 24/24/22
f 31/31/29 32/32/30 25/25/23
f 32/32/30 33/33/32 26/26/31
f 33/33/32 34/34/33 27/27/25
f 34/34/33 35/35/40 28/28/34
f 36/36/35 37/37/36 30/30/28
f 37/37/36 38/38/37 31/31/29
f 38/38/37 39/39/43 32/32/30
f 32/32/30 39/39/43 40/40/38
f 40/40/38 41/41/39 34/34/33
f 41/41/39 42/42/47 35/35/40
f 36/36/35 43/43/49 44/44/41
f 44/44/41 45/45/42 38/38/37
f 45/45/42 46/46/44 39/39/43
f 46/46/44 47/47/45 40/40/38
f 47/47/45 48/48/46 41/41/39
f 48/48/46 49/49/54 42/42/47
f 50/50/48 51/51/50 44/44/41
f 51/51/50 52/52/57 45/45/42
f 45/45/42 52/52/57 53/53/51
f 53/53/51 54/54/52 47/47/45
f 54/54/52 55/55/53 48/48/46
f 55/55/53 56/56/61 49/49/54
f 57/57/55 58/58/56 51/51/50
f 58/58/56 59/59/58 52/52/57
f 59/59/58 60/60/59 53/53/51
f 60/60/59 61/61/65 54/54/52
f 54/54/52 61/61/65 62/62/60
f 62/62/60 63/63/68 56/56/61
f 57/57/55 64/65/69 65/66/62
f 65/66/62 66/68/63 59/59/58
f 66/68/63 67/70/64 60/60/59
f 67/70/64 68/73/66 61/61/65
f 68/73/66 69/74/67 62/62/60
f 69/74/67 70/76/74 63/63/68
f 71/78/12 72/79/70 65/67/62
f 72/79/70 73/80/76 66/69/63
f 66/69/63 73/80/76 74/81/71
f 67/71/64 74/81/71 75/82/72
f 75/82/72 76/83/73 69/75/67
f 76/83/73 77/84/3 70/77/74
f 71/78/12 78/85/81 79/86/75
f 79/86/75 80/87/77 73/80/76
f 80/87/77 81/88/78 74/81/71
f 81/88/78 82/89/79 75/82/72
f 82/89/79 83/90/80 76/83/73
f 83/90/80 84/91/86 77/84/3
f 78/85/81 85/92/26 86/93/82
f 86/93/82 87/94/83 80/87/77
f 87/94/83 88/95/84 81/88/78
f 88/95/84 89/96/85 82/89/79
f 89/96/85 90/97/90 83/90/80
f 83/90/80 90/97/90 91/98/13
f 85/92/26 92/99/34 93/100/87
f 93/100/87 94/101/88 87/94/83
f 94/101/88 95/102/95 88/95/84
f 88/95/84 95/102/95 96/103/89
f 96/103/89 97/104/91 90/97/90
f 97/104/91 98/105/19 91/98/13
f 99/106/92 100/107/93 93/100/87
f 100/107/93 101/108/94 94/101/88
f 101/108/94 102/109/96 95/102/95
f 102/109/96 103/110/97 96/103/89
f 103/110/97 104/111/98 97/104/91
f 104/111/98 105/112/27 98/105/19
f 106/113/47 107/114/99 100/107/93
f 107/114/99 108/115/100 101/108/94
f 108/115/100 109/116/105 102/109/96
f 102/109/96 109/116/105 110/117/101
f 103/110/97 110/117/101 111/118/102
f 111/118/102 112/119/35 105/112/27
f 106/113/47 113/120/54 114/121/103
f 114/121/103 115/122/108 108/115/100
f 108/115/100 115/122/108 116/123/104
f 116/123/104 117/124/110 110/117/101
f 110/117/101 117/124/110 118/125/106
f 118/125/106 119/126/112 112/119/35
f 120/127/61 121/128/113 114/121/103
f 114/121/103 121/128/113 122/129/107
f 122/129/107 123/130/109 116/123/104
f 123/130/109 124/131/117 117/124/110
f 117/124/110 124/131/117 125/132/111
f 125/132/111 126/133/48 119/126/112
f 127/134/68 128/135/114 121/128/113
f 128/135/114 129/136/115 122/129/107
f 129/136/115 130/137/116 123/130/109
f 130/137/116 131/138/122 124/131/117
f 124/131/117 131/138/122 132/139/118
f 125/132/111 132/139/118 133/140/55
f 127/134/68 134/141/125 135/142/119
f 128/135/114 135/142/119 136/143/120
f 136/143/120 137/144/121 130/137/116
f 137/144/121 138/145/123 131/138/122
f 138/145/123 139/146/124 132/139/118
f 139/146/124 140/147/69 133/140/55
f 1/1/3 2/2/2 135/142/119
f 2/2/2 3/3/5 136/143/120
f 3/3/5 4/4/7 137/144/121
f 4/4/7 5/5/9 138/145/123
f 5/5/9 6/6/10 139/146/124
f 6/6/10 7/7/12 140/147/69
